<svg xmlns="http://www.w3.org/2000/svg" xmlns:xlink="http://www.w3.org/1999/xlink" version="1.1" viewBox="17.52 17.59 104.97 14.82">
<g id="surface1">
<path style=" stroke:none;fill-rule:nonzero;fill:rgb(0%,0%,0%);fill-opacity:1;" d="M 39.113281 17.589844 C 35.011719 17.589844 31.804688 20.894531 31.804688 25.035156 C 31.804688 29.164062 35.011719 32.410156 39.113281 32.410156 C 43.21875 32.410156 46.425781 29.164062 46.425781 25.035156 C 46.425781 20.894531 43.21875 17.589844 39.113281 17.589844 Z M 39.113281 30.027344 C 36.445312 30.027344 34.355469 27.910156 34.355469 25.035156 C 34.355469 22.164062 36.445312 19.988281 39.113281 19.988281 C 41.78125 19.988281 43.875 22.164062 43.875 25.035156 C 43.875 27.910156 41.78125 30.027344 39.113281 30.027344 Z M 39.113281 30.027344 "/>
<path style=" stroke:none;fill-rule:nonzero;fill:rgb(0%,0%,0%);fill-opacity:1;" d="M 70.203125 17.589844 C 66.101562 17.589844 62.894531 20.894531 62.894531 25.035156 C 62.894531 29.164062 66.101562 32.410156 70.203125 32.410156 C 74.308594 32.410156 77.515625 29.164062 77.515625 25.035156 C 77.515625 20.894531 74.308594 17.589844 70.203125 17.589844 Z M 70.203125 30.027344 C 67.535156 30.027344 65.445312 27.910156 65.445312 25.035156 C 65.445312 22.164062 67.535156 19.988281 70.203125 19.988281 C 72.871094 19.988281 74.964844 22.164062 74.964844 25.035156 C 74.964844 27.910156 72.871094 30.027344 70.203125 30.027344 Z M 70.203125 30.027344 "/>
<path style=" stroke:none;fill-rule:nonzero;fill:rgb(0%,0%,0%);fill-opacity:1;" d="M 83.5 17.867188 L 80.964844 17.867188 L 80.964844 32.132812 L 90.703125 32.132812 L 90.703125 29.824219 L 83.5 29.824219 Z M 83.5 17.867188 "/>
<path style=" stroke:none;fill-rule:nonzero;fill:rgb(0%,0%,0%);fill-opacity:1;" d="M 99.179688 17.589844 C 95.074219 17.589844 91.867188 20.894531 91.867188 25.035156 C 91.867188 29.164062 95.074219 32.410156 99.179688 32.410156 C 103.285156 32.410156 106.492188 29.164062 106.492188 25.035156 C 106.492188 20.894531 103.285156 17.589844 99.179688 17.589844 Z M 99.179688 30.027344 C 96.511719 30.027344 94.421875 27.910156 94.421875 25.035156 C 94.421875 22.164062 96.511719 19.988281 99.179688 19.988281 C 101.847656 19.988281 103.941406 22.164062 103.941406 25.035156 C 103.941406 27.910156 101.847656 30.027344 99.179688 30.027344 Z M 99.179688 30.027344 "/>
<path style=" stroke:none;fill-rule:nonzero;fill:rgb(0%,0%,0%);fill-opacity:1;" d="M 119.683594 17.867188 L 115.113281 27.945312 L 110.558594 17.867188 L 107.757812 17.867188 L 114.277344 32.132812 L 115.976562 32.132812 L 122.484375 17.867188 Z M 119.683594 17.867188 "/>
<path style=" stroke:none;fill-rule:nonzero;fill:rgb(0%,0%,0%);fill-opacity:1;" d="M 61.5 17.867188 L 58.269531 17.867188 L 52.410156 23.972656 L 52.410156 17.867188 L 49.875 17.867188 L 49.875 32.132812 L 52.410156 32.132812 L 52.410156 25.792969 L 58.496094 32.132812 L 61.96875 32.132812 L 54.714844 24.765625 Z M 61.5 17.867188 "/>
<path style=" stroke:none;fill-rule:nonzero;fill:rgb(0%,0%,0%);fill-opacity:1;" d="M 17.515625 28.109375 C 17.675781 29.984375 19.175781 32.410156 23.527344 32.410156 C 26.839844 32.410156 29.039062 30.65625 29.039062 27.9375 C 29.039062 25.140625 26.867188 24.148438 24.898438 23.886719 C 24.070312 23.777344 23.078125 23.644531 22.328125 23.546875 C 20.984375 23.371094 20.367188 22.824219 20.367188 21.863281 C 20.367188 20.609375 21.625 19.8125 23.164062 19.8125 C 24.730469 19.8125 25.773438 20.367188 26.242188 21.664062 L 28.753906 21.664062 C 28.457031 19.972656 27.121094 17.589844 23.164062 17.589844 C 19.828125 17.589844 17.792969 19.707031 17.792969 22.03125 C 17.792969 25.007812 20.191406 25.71875 22.167969 25.980469 C 22.925781 26.085938 23.695312 26.1875 24.367188 26.273438 C 25.707031 26.453125 26.46875 27.058594 26.46875 28.101562 C 26.46875 29.140625 25.671875 30.152344 23.472656 30.152344 C 21.34375 30.152344 20.242188 29.148438 20.058594 28.101562 L 17.515625 28.101562 Z M 17.515625 28.109375 "/>
</g>
</svg>